<?xml version="1.0" standalone="no"?><!DOCTYPE svg PUBLIC "-//W3C//DTD SVG 1.1//EN" "http://www.w3.org/Graphics/SVG/1.1/DTD/svg11.dtd">
<svg t="1553149225293" class="icon" style="" viewBox="0 0 1448 1024" version="1.1" 
    xmlns="http://www.w3.org/2000/svg" p-id="28864" 
    xmlns:xlink="http://www.w3.org/1999/xlink">
    <defs>
        <style type="text/css"></style>
    </defs>
    <path d="M712.757533 112.626582s122.282059 24.690015 157.761161 45.297998c37.732563 21.913614 104.003225 83.567262 124.960408 121.836527 12.705389 23.195162 27.722725 75.15549 29.678592 101.52786 2.408278 32.587448-8.590673 130.42548-8.590673 130.42548s-69.766107-87.036904-96.061067-113.244134c-17.982959-17.914151-58.626099-49.364548-81.226072-60.919124-16.395216-8.382529-73.414649-6.247762-73.414649-6.247762l2.083161 379.565327s-8.676683 47.904099-41.355302 93.92114c-8.666362 12.203091-50.281414 72.181266-150.250772 72.181266-79.139471 0-129.481091-22.863164-147.866577-89.052977-31.240532-112.463164 72.057412-170.838113 131.20817-181.19027 26.004247-4.551646 117.847386-3.72079 151.511679 1.047601l1.561941-495.148932z" p-id="28865"></path>
</svg>
